<svg id="visual" viewBox="0 0 900 600" width="900" height="600" xmlns="http://www.w3.org/2000/svg" xmlns:xlink="http://www.w3.org/1999/xlink" version="1.1"><rect x="0" y="0" width="900" height="600" fill="#071F30"></rect><g transform="translate(452.7736477729028 337.4839328040196)"><path d="M173.7 -208.3C218.8 -169.1 244.8 -108.4 230.9 -59.6C216.9 -10.8 163 26.1 129.2 65.2C95.4 104.3 81.7 145.7 51.6 167.9C21.5 190.1 -25 193.3 -52.6 171.5C-80.1 149.7 -88.8 103 -125.3 61.7C-161.8 20.4 -226.2 -15.4 -238.1 -58.4C-250 -101.3 -209.5 -151.4 -161.1 -190C-112.7 -228.6 -56.4 -255.8 4 -260.5C64.3 -265.3 128.6 -247.5 173.7 -208.3" fill="none" stroke="#2c3c48" stroke-width="15"></path></g></svg>