<svg id="visual" viewBox="0 0 900 600" width="900" height="600" xmlns="http://www.w3.org/2000/svg" xmlns:xlink="http://www.w3.org/1999/xlink" version="1.1"><rect x="0" y="0" width="900" height="600" fill="#071F30"></rect><g transform="translate(463.3910760462906 323.90702888961243)"><path d="M82 -111.6C115.8 -69.4 159.4 -52.6 185 -16.5C210.6 19.7 218.3 75.1 193.2 104.8C168 134.6 110 138.7 59.6 151.9C9.2 165.1 -33.5 187.3 -63.8 176C-94.1 164.7 -112 119.9 -148.6 76.2C-185.1 32.6 -240.3 -9.7 -235 -41.8C-229.7 -73.8 -164 -95.5 -114.8 -135C-65.6 -174.5 -32.8 -231.7 -4.3 -226.6C24.1 -221.4 48.2 -153.8 82 -111.6" fill="none" stroke="#2c3c48" stroke-width="15"></path></g></svg>