<svg id="visual" viewBox="0 0 900 600" width="900" height="600" xmlns="http://www.w3.org/2000/svg" xmlns:xlink="http://www.w3.org/1999/xlink" version="1.1"><rect x="0" y="0" width="900" height="600" fill="#071F30"></rect><g transform="translate(430.8206254195835 272.0594613199593)"><path d="M120.8 -114C170 -102.7 232.7 -77.4 231.1 -46.7C229.4 -16 163.4 20.1 128.2 67.2C92.9 114.2 88.3 172.2 61.8 191C35.3 209.9 -13.1 189.5 -63.2 172C-113.2 154.4 -164.9 139.7 -183.7 106.4C-202.4 73.1 -188.4 21.2 -175.6 -27.5C-162.9 -76.2 -151.5 -121.6 -122.5 -136.5C-93.4 -151.3 -46.7 -135.7 -5.5 -129.2C35.8 -122.6 71.6 -125.3 120.8 -114" fill="none" stroke="#2c3c48" stroke-width="6"></path></g></svg>